<?xml version="1.0" encoding="UTF-8"?>
<svg version="1.1" xmlns="http://www.w3.org/2000/svg" width="217" height="46">
<path d="M0 0 C71.61 0 143.22 0 217 0 C217 15.18 217 30.36 217 46 C145.39 46 73.78 46 0 46 C0 30.82 0 15.64 0 0 Z " fill="#EBF1F2" transform="translate(0,0)"/>
<path d="M0 0 C2.3125 1.6875 2.3125 1.6875 4.3125 4.6875 C4.53511369 7.33862668 4.63701003 9.85058758 4.625 12.5 C4.64111328 13.19931641 4.65722656 13.89863281 4.67382812 14.61914062 C4.67828775 19.38648413 3.87030465 22.66460439 1.3125 26.6875 C-3.75796762 29.47625719 -10.03135111 29.24735171 -15.6875 28.6875 C-19.05922157 27.53465099 -21.53385168 26.59492523 -23.6875 23.6875 C-24.68619709 19.81668785 -24.85189627 16.11270327 -24.875 12.125 C-24.88917969 11.00996094 -24.90335938 9.89492188 -24.91796875 8.74609375 C-24.6929898 5.76035619 -24.32523746 4.15540094 -22.6875 1.6875 C-16.42550955 -3.05130358 -7.10344278 -2.52834404 0 0 Z " fill="#F6FCFB" transform="translate(185.6875,7.3125)"/>
<path d="M0 0 C1.65 0 3.3 0 5 0 C6.65 3.63 8.3 7.26 10 11 C11.32 7.37 12.64 3.74 14 0 C15.65 0 17.3 0 19 0 C19 5.94 19 11.88 19 18 C17.68 18 16.36 18 15 18 C14.67 15.36 14.34 12.72 14 10 C13.01 12.64 12.02 15.28 11 18 C10.01 18 9.02 18 8 18 C7.01 15.36 6.02 12.72 5 10 C4.67 12.64 4.34 15.28 4 18 C2.68 18 1.36 18 0 18 C0 12.06 0 6.12 0 0 Z " fill="#52D3C8" transform="translate(23,13)"/>
<path d="M0 0 C1.83792973 5.7308675 1.05484348 12.07690436 1 18 C-4.61 18 -10.22 18 -16 18 C-12.18292172 4.81372959 -12.18292172 4.81372959 -9.16015625 2.734375 C-8.46792969 2.40953125 -7.77570313 2.0846875 -7.0625 1.75 C-6.02802734 1.24726563 -6.02802734 1.24726563 -4.97265625 0.734375 C-3 0 -3 0 0 0 Z " fill="#CDEFEB" transform="translate(216,28)"/>
<path d="M0 0 C2.5 0.1875 2.5 0.1875 4.5 1.1875 C5.469375 0.98125 6.43875 0.775 7.4375 0.5625 C10.5 0.1875 10.5 0.1875 12.375 1.375 C13.5 3.1875 13.5 3.1875 13.5 7.1875 C12.51 7.1875 11.52 7.1875 10.5 7.1875 C10.17 5.8675 9.84 4.5475 9.5 3.1875 C9.17 4.8375 8.84 6.4875 8.5 8.1875 C9.49 8.1875 10.48 8.1875 11.5 8.1875 C11.16785849 11.28748746 10.4454988 12.2420012 8.1875 14.5 C5.5 16.1875 5.5 16.1875 3.5703125 16.02734375 C0.92606974 14.95467923 -0.41643232 13.5610958 -2.3125 11.4375 C-3.25029297 10.42429687 -3.25029297 10.42429687 -4.20703125 9.390625 C-5.5 7.1875 -5.5 7.1875 -5.32421875 4.546875 C-4.20564574 1.34489349 -3.45408973 0.25905673 0 0 Z " fill="#52D6CA" transform="translate(171.5,12.8125)"/>
<path d="M0 0 C1.32 0 2.64 0 4 0 C4 6.27 4 12.54 4 19 C-4.30078125 19.390625 -4.30078125 19.390625 -7 19 C-9.39197243 16.60802757 -9.94539991 15.37440061 -10.4375 12 C-10 9 -10 9 -8.375 6.5625 C-6 5 -6 5 -2.75 5.25 C-1.8425 5.4975 -0.935 5.745 0 6 C0 4.02 0 2.04 0 0 Z " fill="#51D3C8" transform="translate(70,12)"/>
<path d="M0 0 C0.33 1.32 0.66 2.64 1 4 C-1.64 3.67 -4.28 3.34 -7 3 C-6.67 3.99 -6.34 4.98 -6 6 C-3.07085835 7.17082878 -3.07085835 7.17082878 0 8 C0.66 8.33 1.32 8.66 2 9 C2.125 12.375 2.125 12.375 2 16 C-0.60704898 18.60704898 -2.47338241 18.23905333 -6.02734375 18.265625 C-8 18 -8 18 -11 16 C-10.67 15.01 -10.34 14.02 -10 13 C-7.36 13.33 -4.72 13.66 -2 14 C-2.33 13.01 -2.66 12.02 -3 11 C-4.98248715 10.28293018 -6.98415349 9.61709587 -9 9 C-9.66 8.34 -10.32 7.68 -11 7 C-10.75 3.9375 -10.75 3.9375 -10 1 C-6.78548731 -0.60725635 -3.56387464 -0.05748185 0 0 Z " fill="#46D1C5" transform="translate(95,13)"/>
<path d="M0 0 C1.875 1.1875 1.875 1.1875 3 3 C3.1875 5.6875 3.1875 5.6875 3 8 C0.03 8 -2.94 8 -6 8 C-5.67 8.66 -5.34 9.32 -5 10 C-2.69 10 -0.38 10 2 10 C2 10.99 2 11.98 2 13 C1 14 1 14 -2.375 14.25 C-6 14 -6 14 -7.9375 13 C-9.65701652 9.76326302 -9.53653931 6.57692871 -9 3 C-6.89283346 -0.74607384 -4.00604938 -0.50075617 0 0 Z " fill="#5AD4CA" transform="translate(55,17)"/>
<path d="M0 0 C1.875 0.125 1.875 0.125 4 1 C5.25 4.0625 5.25 4.0625 6 7 C8.22189824 4.77810176 8.92598892 2.91517292 10 0 C10.99 0 11.98 0 13 0 C12.41164143 4.41599467 11.29784101 8.15109365 9.5625 12.25 C9.13066406 13.28640625 8.69882813 14.3228125 8.25390625 15.390625 C7 18 7 18 5 20 C2.375 20.125 2.375 20.125 0 20 C0 19.01 0 18.02 0 17 C1.32 16.67 2.64 16.34 4 16 C3.57355565 12.50315637 2.87926526 9.50886637 1.4375 6.3125 C0 3 0 3 0 0 Z " fill="#4AD1C6" transform="translate(99,17)"/>
<path d="M0 0 C1.32 0.33 2.64 0.66 4 1 C4.33 0.67 4.66 0.34 5 0 C7.4375 -0.1875 7.4375 -0.1875 10 0 C12 2 12 2 12.1953125 4.8203125 C12.16050781 6.45613281 12.16050781 6.45613281 12.125 8.125 C12.10695313 9.22070312 12.08890625 10.31640625 12.0703125 11.4453125 C12.04710938 12.28835937 12.02390625 13.13140625 12 14 C11.01 14 10.02 14 9 14 C8.67 10.7 8.34 7.4 8 4 C6.68 4.33 5.36 4.66 4 5 C3.67 7.97 3.34 10.94 3 14 C2.01 14 1.02 14 0 14 C0 9.38 0 4.76 0 0 Z " fill="#41D0C3" transform="translate(115,17)"/>
<path d="M0 0 C0.66 1.32 1.32 2.64 2 4 C1.01 4.33 0.02 4.66 -1 5 C-1 4.34 -1 3.68 -1 3 C-2.32 3.33 -3.64 3.66 -5 4 C-5 5.98 -5 7.96 -5 10 C-3.02 9.67 -1.04 9.34 1 9 C1 10.32 1 11.64 1 13 C0 14 0 14 -3.375 14.3125 C-7 14 -7 14 -8.9375 12.375 C-10.31565201 9.29442492 -10.48746608 7.34262452 -10 4 C-7.16463433 -0.14399597 -4.86205069 -0.44200461 0 0 Z " fill="#4BD2C6" transform="translate(140,17)"/>
<path d="M0 0 C0.33 0 0.66 0 1 0 C1 2.31 1 4.62 1 7 C-0.98 7.66 -2.96 8.32 -5 9 C-5.2502157 11.91634129 -5.2502157 11.91634129 -5 15 C-4.01 15.66 -3.02 16.32 -2 17 C-1.67 17.66 -1.34 18.32 -1 19 C-3.8125 19.25 -3.8125 19.25 -7 19 C-9.56002346 16.781313 -9.94923191 15.34812407 -10.4375 12 C-10 9 -10 9 -8.375 6.5625 C-6 5 -6 5 -2.75 5.25 C-1.8425 5.4975 -0.935 5.745 0 6 C0 4.02 0 2.04 0 0 Z " fill="#4CD2C6" transform="translate(70,12)"/>
<path d="M0 0 C1.65 0 3.3 0 5 0 C5 5.94 5 11.88 5 18 C4.01 18 3.02 18 2 18 C1.67 14.37 1.34 10.74 1 7 C0.01 7 -0.98 7 -2 7 C-1.34 4.69 -0.68 2.38 0 0 Z " fill="#41D0C3" transform="translate(37,13)"/>
<path d="M0 0 C2.98704569 0.49784095 4.39324263 1.26216175 7 3 C7.1875 6.625 7.1875 6.625 7 10 C6.67 8.68 6.34 7.36 6 6 C5.37351563 6.30035156 4.74703125 6.60070312 4.1015625 6.91015625 C3.28429687 7.29042969 2.46703125 7.67070312 1.625 8.0625 C0.81289062 8.44535156 0.00078125 8.82820313 -0.8359375 9.22265625 C-1.55007812 9.47917969 -2.26421875 9.73570313 -3 10 C-3.66 9.67 -4.32 9.34 -5 9 C-4.3566152 7.686298 -3.71021785 6.37407102 -3.0625 5.0625 C-2.70285156 4.33160156 -2.34320313 3.60070312 -1.97265625 2.84765625 C-1 1 -1 1 0 0 Z " fill="#DCF0EE" transform="translate(210,22)"/>
<path d="M0 0 C0.86625 0.7115625 0.86625 0.7115625 1.75 1.4375 C6.80763865 4.94974906 13.06659087 4.48968989 19 4 C21.85765494 3.23080337 24.29160987 2.22644081 27 1 C26.04922839 3.85231484 25.31685782 4.83323272 22.625 6.25 C16.09275927 7.60149808 9.67193778 7.90574162 3.3125 5.75 C1 4 1 4 0.125 1.8125 C0.08375 1.214375 0.0425 0.61625 0 0 Z " fill="#5ED0CA" transform="translate(162,31)"/>
<path d="M0 0 C1.32 0 2.64 0 4 0 C4 4.62 4 9.24 4 14 C2.68 14 1.36 14 0 14 C0 9.38 0 4.76 0 0 Z " fill="#56D4C9" transform="translate(77,17)"/>
<path d="M0 0 C1.67542976 0.28604898 3.34385343 0.61781233 5 1 C5 2.98 5 4.96 5 7 C3.34385343 7.38218767 1.67542976 7.71395102 0 8 C-1 7 -1 7 -1.125 4 C-1 1 -1 1 0 0 Z " fill="#E3EFF0" transform="translate(65,20)"/>
<path d="M0 0 C0.33 0 0.66 0 1 0 C1 3.63 1 7.26 1 11 C-1.31 11 -3.62 11 -6 11 C-4.02 7.37 -2.04 3.74 0 0 Z " fill="#8CE5DB" transform="translate(215,35)"/>
<path d="M0 0 C0.66 0.33 1.32 0.66 2 1 C0.53480226 3.54140493 -0.95224699 5.88875077 -3 8 C-6.3125 8.4375 -6.3125 8.4375 -9 8 C-6.14723863 5.06799526 -3.34920216 2.35684596 0 0 Z " fill="#BFECE9" transform="translate(212,38)"/>
<path d="M0 0 C1.98 0.99 1.98 0.99 4 2 C4 3.32 4 4.64 4 6 C2.68 5.67 1.36 5.34 0 5 C0 3.35 0 1.7 0 0 Z " fill="#40CFC3" transform="translate(54,18)"/>
</svg>
